<svg width="118" height="43" viewBox="0 0 118 43" fill="none" xmlns="http://www.w3.org/2000/svg"><path d="M2.704 42.248C2.144 42.248 1.56533 41.8747 0.968 41.128C0.370667 40.4187 0.072 39.5227 0.072 38.44C0.072 37.5813 0.277333 36.7413 0.688 35.92C1.43467 34.352 2.18133 33.0827 2.928 32.112C3.18933 31.7387 3.376 31.4213 3.488 31.16C3.63733 30.8987 3.73067 30.544 3.768 30.096C4.29067 29.424 4.98133 28.2107 5.84 26.456C7.296 24.104 9.368 20.4827 12.056 15.592C12.4293 14.92 13.1573 13.5947 14.24 11.616C15.36 9.63733 16.1067 8.46133 16.48 8.088L16.76 7.696C16.648 7.88267 16.8347 7.45333 17.32 6.408C17.8427 5.36267 18.384 4.42933 18.944 3.608C19.5413 2.74933 20.064 2.32 20.512 2.32C20.9973 2.32 21.5573 2.52533 22.192 2.936C22.8267 3.30933 23.368 3.888 23.816 4.672C24.3013 5.41866 24.544 6.31466 24.544 7.36C24.544 7.808 24.5253 8.16267 24.488 8.424L23.928 12.232L23.648 13.464C23.1627 15.928 22.4347 19.3067 21.464 23.6C20.6053 27.408 20.176 29.704 20.176 30.488C20.176 30.712 20.2133 30.8987 20.288 31.048C20.3627 31.16 20.456 31.216 20.568 31.216C20.6427 31.216 20.8293 31.104 21.128 30.88C21.4267 30.6187 21.688 30.2453 21.912 29.76L22.64 28.64L23.592 27.24C24.6373 25.784 25.9253 23.824 27.456 21.36C28.9867 18.8587 31.4693 14.584 34.904 8.536C35.6133 7.49067 36.192 6.576 36.64 5.792C37.2373 4.82133 37.816 3.90667 38.376 3.048C38.936 2.18933 39.3653 1.648 39.664 1.424C40.0373 1.12533 40.504 0.975999 41.064 0.975999C41.624 1.01333 42.2027 1.21866 42.8 1.592C43.4347 1.96533 43.9573 2.488 44.368 3.16C44.816 3.832 45.04 4.56 45.04 5.344C45.04 6.24 44.76 7.88267 44.2 10.272C43.6773 12.6613 43.0613 14.976 42.352 17.216C42.2027 18 41.736 19.848 40.952 22.76C40.3547 24.9253 39.9067 26.6427 39.608 27.912C39.3467 29.1813 39.216 30.208 39.216 30.992V31.44C38.656 32.448 38.376 34.464 38.376 37.488C38.2267 38.72 37.9467 39.672 37.536 40.344C37.1253 41.0533 36.7893 41.408 36.528 41.408L36.36 41.352C36.1733 41.352 35.9867 41.4267 35.8 41.576C35.6507 41.7627 35.4267 41.856 35.128 41.856C34.1947 41.856 33.5787 41.52 33.28 40.848C33.0187 40.176 32.888 39.2613 32.888 38.104C32.888 37.432 32.9067 36.872 32.944 36.424C33.056 35.4533 34.2507 30.3947 36.528 21.248C38.32 14.08 39.216 10.328 39.216 9.992L38.432 11.336C37.6853 12.7547 36.752 14.416 35.632 16.32L31.712 23.656C31.2267 24.328 30.816 24.9813 30.48 25.616C30.1813 26.2507 30.0133 26.624 29.976 26.736C29.528 27.632 28.632 28.92 27.288 30.6C26.84 31.16 26.5787 31.5147 26.504 31.664C26.3173 32.0747 25.72 32.8027 24.712 33.848C23.704 34.856 22.64 35.7893 21.52 36.648C20.4 37.4693 19.4667 37.88 18.72 37.88C17.712 37.88 16.7973 37.3947 15.976 36.424C15.192 35.4533 14.8 34.2773 14.8 32.896C14.8 31.888 14.9867 30.208 15.36 27.856C15.9573 25.28 16.592 22.6667 17.264 20.016C17.936 17.3653 18.4027 15.6293 18.664 14.808C18.776 14.472 18.832 14.0987 18.832 13.688C18.832 13.4267 18.7947 13.2587 18.72 13.184C18.6827 13.184 18.6267 13.2213 18.552 13.296C18.5147 13.3707 18.4587 13.464 18.384 13.576C17.824 14.472 16.9467 16.04 15.752 18.28C14.5573 20.52 13.2693 23.152 11.888 26.176C6.54933 35.9947 3.488 41.352 2.704 42.248ZM50.2209 37.824C50.1089 37.6 49.7915 37.3013 49.2689 36.928C48.7462 36.5547 48.4849 36.3307 48.4849 36.256C48.4849 36.1067 48.3915 35.9013 48.2049 35.64C48.0555 35.3413 47.9062 35.08 47.7569 34.856C47.4582 34.5573 47.6635 33.5867 48.3729 31.944C49.0822 30.3013 50.0342 28.36 51.2289 26.12C51.4529 25.896 51.7329 25.504 52.0689 24.944C52.4422 24.384 52.6849 24.0667 52.7969 23.992C52.7969 23.8427 52.8529 23.712 52.9649 23.6C53.0769 23.4507 53.2075 23.376 53.3569 23.376L53.8049 22.48C53.9542 22.144 54.6822 21.3413 55.9889 20.072C57.2955 18.8027 58.3222 17.944 59.0689 17.496C59.7782 17.0107 60.5435 16.768 61.3649 16.768C62.2609 16.768 63.0262 17.0293 63.6609 17.552L65.1729 18.84C66.2929 19.7733 66.9275 20.3147 67.0769 20.464L69.1489 22.312L68.1969 25.112C67.8609 26.12 67.6929 27.072 67.6929 27.968C67.6929 29.3867 68.0849 30.712 68.8689 31.944C69.0555 32.3547 69.2982 32.672 69.5969 32.896C69.9329 33.12 70.3622 33.2693 70.8849 33.344C71.7062 33.4933 72.1169 33.904 72.1169 34.576C72.1169 35.3973 71.9675 36.0133 71.6689 36.424C71.3702 36.8347 71.0155 37.096 70.6049 37.208C70.0075 37.2827 69.5969 37.32 69.3729 37.32C68.2902 37.32 67.3009 37.04 66.4049 36.48C65.5089 35.92 64.7249 34.968 64.0529 33.624C63.9035 33.4 63.6982 32.9893 63.4369 32.392C63.2129 31.7947 63.0822 31.384 63.0449 31.16C62.7835 31.5333 62.3542 32.0187 61.7569 32.616C57.9115 36.4987 54.7942 38.44 52.4049 38.44C51.5835 38.44 50.8555 38.2347 50.2209 37.824ZM53.3009 33.176C53.8982 33.2507 55.0555 32.5787 56.7729 31.16C56.9595 31.0107 57.1649 30.8427 57.3889 30.656C57.6129 30.432 57.8555 30.208 58.1169 29.984C59.1622 29.1253 59.9649 28.416 60.5249 27.856C61.1222 27.2587 61.7195 26.5493 62.3169 25.728L63.5489 23.712C63.1755 22.8907 62.8395 22.3493 62.5409 22.088C62.2422 21.7893 61.9435 21.64 61.6449 21.64C60.8982 21.64 59.9649 22.312 58.8449 23.656C57.7249 24.9627 56.3809 26.96 54.8129 29.648C54.4022 30.32 54.0662 31.0293 53.8049 31.776C53.5435 32.4853 53.3755 32.952 53.3009 33.176ZM80.5891 38.384C79.3944 38.5707 78.3117 38.664 77.3411 38.664C76.6691 38.664 76.1464 38.608 75.7731 38.496C75.4371 38.3467 75.0637 38.1227 74.6531 37.824C74.2424 37.5627 74.0371 37.096 74.0371 36.424C74.0371 35.416 74.5971 34.352 75.7171 33.232C77.1357 31.4773 78.5357 30.04 79.9171 28.92C80.2531 28.6587 80.6637 28.36 81.1491 28.024C81.6717 27.688 82.3251 27.24 83.1091 26.68L85.3491 25.168C85.6104 24.944 86.5997 24.1973 88.3171 22.928C88.2051 22.928 87.7571 22.872 86.9731 22.76C86.2264 22.648 85.4424 22.6293 84.6211 22.704C83.8371 22.704 83.2957 22.704 82.9971 22.704C82.7357 22.6667 82.4557 22.6107 82.1571 22.536H81.3171C80.9811 22.536 80.4211 22.256 79.6371 21.696C78.8531 21.136 78.4424 20.6693 78.4051 20.296L79.3011 19.288C79.4131 19.2133 79.5624 19.12 79.7491 19.008C79.9357 18.8587 80.0851 18.784 80.1971 18.784C80.3091 18.784 80.4024 18.8213 80.4771 18.896L84.6211 18.672C86.7864 18.7093 88.3731 18.784 89.3811 18.896C90.3891 18.9707 91.1357 19.12 91.6211 19.344C92.1064 19.5307 92.6291 19.8667 93.1891 20.352C93.5624 20.7253 93.8611 21.1547 94.0851 21.64C94.3091 22.1253 94.4211 22.5733 94.4211 22.984C94.4211 23.5067 94.2904 23.8987 94.0291 24.16C93.9917 24.1973 93.8797 24.328 93.6931 24.552C93.5064 24.776 93.3571 24.888 93.2451 24.888L90.5571 26.624C90.1837 26.8853 89.6237 27.24 88.8771 27.688C87.9064 28.2853 87.3464 28.6773 87.1971 28.864C86.8611 29.0133 86.5251 29.2 86.1891 29.424C85.8904 29.648 85.6477 29.8533 85.4611 30.04C85.2744 30.264 84.9944 30.5627 84.6211 30.936C84.2477 31.272 83.8557 31.5707 83.4451 31.832C82.8851 32.3173 82.3624 32.8027 81.8771 33.288C81.3917 33.736 81.0744 34.0533 80.9251 34.24C81.0744 34.2027 81.4291 34.1467 81.9891 34.072C82.5864 33.96 83.3331 33.8853 84.2291 33.848C85.1251 33.7733 86.0584 33.7547 87.0291 33.792L90.9491 33.68C91.5837 33.6427 92.3117 33.624 93.1331 33.624C93.9171 33.624 94.4771 33.6987 94.8131 33.848C95.0744 33.9227 95.2797 34.24 95.4291 34.8C95.5784 35.3227 95.6531 35.8267 95.6531 36.312C95.6531 36.6107 95.6344 36.7787 95.5971 36.816C95.4104 36.816 94.7944 36.872 93.7491 36.984C92.7411 37.096 91.6211 37.1707 90.3891 37.208C89.4184 37.2827 87.1224 37.544 83.5011 37.992C82.9411 38.104 81.9704 38.2347 80.5891 38.384ZM106.149 40.008C101.893 40.008 99.7651 37.5813 99.7651 32.728C99.7651 30.9733 100.194 28.9947 101.053 26.792C101.949 24.552 103.05 22.5547 104.357 20.8C105.701 19.008 107.026 17.8133 108.333 17.216C109.042 16.8427 109.864 16.656 110.797 16.656C112.477 16.656 113.933 17.0293 115.165 17.776C116.434 18.4853 117.069 19.848 117.069 21.864C117.069 23.0213 116.677 24.2907 115.893 25.672C115.109 27.0533 114.12 28.2293 112.925 29.2C111.768 30.1333 110.629 30.6 109.509 30.6C107.829 30.6 106.41 30.0587 105.253 28.976C104.618 30.2453 104.301 31.4587 104.301 32.616C104.301 33.5493 104.413 34.2773 104.637 34.8C104.861 35.2853 105.384 35.528 106.205 35.528C106.989 35.528 107.624 35.416 108.109 35.192C108.594 34.968 109.042 34.7067 109.453 34.408C109.864 34.1093 110.181 33.8853 110.405 33.736L110.629 33.624H110.573C111.245 33.2507 111.73 32.9707 112.029 32.784C112.365 32.56 112.645 32.4107 112.869 32.336C113.429 32.336 113.952 32.504 114.437 32.84C114.922 33.176 115.165 33.5867 115.165 34.072C115.165 34.4453 114.829 35.0613 114.157 35.92C113.485 36.7413 112.794 37.32 112.085 37.656L111.413 37.992H111.469C111.133 38.44 110.797 38.664 110.461 38.664H110.013C109.864 38.9627 109.36 39.2613 108.501 39.56C107.68 39.8587 106.896 40.008 106.149 40.008ZM109.061 26.512C110.106 26.512 110.965 26.064 111.637 25.168C112.346 24.272 112.701 23.376 112.701 22.48C112.701 22.0693 112.589 21.696 112.365 21.36C112.178 21.024 111.917 20.856 111.581 20.856C110.946 20.856 110.237 21.1547 109.453 21.752C108.669 22.3493 107.978 23.1333 107.381 24.104L106.653 25.28C106.802 25.2053 106.914 25.168 106.989 25.168C107.288 25.168 107.512 25.2987 107.661 25.56C107.81 25.8213 107.978 26.0453 108.165 26.232C108.352 26.4187 108.65 26.512 109.061 26.512Z" fill="white"/></svg>